HIERARCHY
ROOT Hips
{
	OFFSET 0.00000 0.00000 0.00000
	CHANNELS 6 Xposition Yposition Zposition Zrotation Yrotation Xrotation 
	JOINT LHipJoint
	{
		OFFSET 0 0 0
		CHANNELS 3 Zrotation Yrotation Xrotation
		JOINT LeftUpLeg
		{
			OFFSET 1.26600 -1.82114 0.91038
			CHANNELS 3 Zrotation Yrotation Xrotation
			JOINT LeftLeg
			{
				OFFSET 2.50076 -6.87080 0.00000
				CHANNELS 3 Zrotation Yrotation Xrotation
				JOINT LeftFoot
				{
					OFFSET 2.57364 -7.07102 0.00000
					CHANNELS 3 Zrotation Yrotation Xrotation
					JOINT LeftToeBase
					{
						OFFSET 0.13572 -0.37290 1.97004
						CHANNELS 3 Zrotation Yrotation Xrotation
						End Site
						{
							OFFSET 0.00000 -0.00000 1.01383
						}
					}
				}
			}
		}
	}
	JOINT RHipJoint
	{
		OFFSET 0 0 0
		CHANNELS 3 Zrotation Yrotation Xrotation
		JOINT RightUpLeg
		{
			OFFSET -1.20803 -1.82114 0.91038
			CHANNELS 3 Zrotation Yrotation Xrotation
			JOINT RightLeg
			{
				OFFSET -2.54916 -7.00377 0.00000
				CHANNELS 3 Zrotation Yrotation Xrotation
				JOINT RightFoot
				{
					OFFSET -2.56374 -7.04382 0.00000
					CHANNELS 3 Zrotation Yrotation Xrotation
					JOINT RightToeBase
					{
						OFFSET -0.23520 -0.64621 2.09921
						CHANNELS 3 Zrotation Yrotation Xrotation
						End Site
						{
							OFFSET -0.00000 -0.00000 1.10065
						}
					}
				}
			}
		}
	}
	JOINT LowerBack
	{
		OFFSET 0 0 0
		CHANNELS 3 Zrotation Yrotation Xrotation
		JOINT Spine
		{
			OFFSET 0.05492 2.10797 -0.12074
			CHANNELS 3 Zrotation Yrotation Xrotation
			JOINT Spine1
			{
				OFFSET 0.04577 2.11592 -0.04483
				CHANNELS 3 Zrotation Yrotation Xrotation
				JOINT Neck
				{
					OFFSET 0 0 0
					CHANNELS 3 Zrotation Yrotation Xrotation
					JOINT Neck1
					{
						OFFSET -0.10759 1.80167 0.15770
						CHANNELS 3 Zrotation Yrotation Xrotation
						JOINT Head
						{
							OFFSET 0.09237 1.77509 -0.40848
							CHANNELS 3 Zrotation Yrotation Xrotation
							End Site
							{
								OFFSET 0.03805 1.84093 -0.15754
							}
						}
					}
				}
				JOINT LeftShoulder
				{
					OFFSET 0 0 0
					CHANNELS 3 Zrotation Yrotation Xrotation
					JOINT LeftArm
					{
						OFFSET 3.42372 1.09575 -0.28209
						CHANNELS 3 Zrotation Yrotation Xrotation
						JOINT LeftForeArm
						{
							OFFSET 4.95681 -0.00000 0.00000
							CHANNELS 3 Zrotation Yrotation Xrotation
							JOINT LeftHand
							{
								OFFSET 3.40915 -0.00000 0.00000
								CHANNELS 3 Zrotation Yrotation Xrotation
								JOINT LeftFingerBase
								{
									OFFSET 0 0 0
									CHANNELS 3 Zrotation Yrotation Xrotation
									JOINT LeftHandIndex1
									{
										OFFSET 0.61640 -0.00000 0.00000
										CHANNELS 3 Zrotation Yrotation Xrotation
										End Site
										{
											OFFSET 0.49696 -0.00000 0.00000
										}
									}
								}
								JOINT LThumb
								{
									OFFSET 0 0 0
									CHANNELS 3 Zrotation Yrotation Xrotation
									End Site
									{
										OFFSET 0.50455 -0.00000 0.50455
									}
								}
							}
						}
					}
				}
				JOINT RightShoulder
				{
					OFFSET 0 0 0
					CHANNELS 3 Zrotation Yrotation Xrotation
					JOINT RightArm
					{
						OFFSET -3.24731 1.15872 -0.32221
						CHANNELS 3 Zrotation Yrotation Xrotation
						JOINT RightForeArm
						{
							OFFSET -5.35200 -0.00000 0.00000
							CHANNELS 3 Zrotation Yrotation Xrotation
							JOINT RightHand
							{
								OFFSET -3.43721 -0.00000 -0.00000
								CHANNELS 3 Zrotation Yrotation Xrotation
								JOINT RightFingerBase
								{
									OFFSET 0 0 0
									CHANNELS 3 Zrotation Yrotation Xrotation
									JOINT RightHandIndex1
									{
										OFFSET -0.72009 -0.00000 0.00000
										CHANNELS 3 Zrotation Yrotation Xrotation
										End Site
										{
											OFFSET -0.58056 -0.00000 0.00000
										}
									}
								}
								JOINT RThumb
								{
									OFFSET 0 0 0
									CHANNELS 3 Zrotation Yrotation Xrotation
									End Site
									{
										OFFSET -0.58942 -0.00000 0.58942
									}
								}
							}
						}
					}
				}
			}
		}
	}
}
MOTION
Frames: 16
Frame Time: .0083333
-1.9609 17.4264 16.8567 6.2276 -183.8620 -357.3560 0.0000 0.0000 0.0000 -10.9594 -8.0053 -30.3236 2.2919 9.4494 27.2114 -0.0219 -11.3023 -7.5985 0.1524 -2.5159 -6.9336 0.0000 0.0000 0.0000 28.7932 -6.2121 8.8651 -0.6317 -5.0854 14.1524 -0.6700 13.2064 -16.1445 -0.2030 -2.9011 8.0034 6.3956 0.4463 7.5949 4.5058 1.6649 3.6484 0.9409 1.1146 -0.4514 -9.4100 -7.2287 -11.3163 3.3336 -4.6649 39.4351 2.7928 -1.3805 16.4980 -0.0000 -0.0000 0.0000 -89.5072 6.7991 17.2303 16.1923 -25.7807 -3.7292 -0.0000 0.0000 -1.4438 17.2253 22.4122 6.7414 -7.1250 0.0000 -0.0000 -12.1165 52.9282 -2.3915 -0.0000 -0.0000 0.0000 83.0046 3.7536 15.0252 -17.1357 27.0364 -4.1488 0.0000 -0.0000 -10.5640 -20.1762 9.6541 -3.5262 7.1250 -0.0000 -0.0000 4.8462 -19.7264 2.9365
-1.9687 17.4125 16.7606 6.4134 -183.9420 -357.2740 0.0000 0.0000 0.0000 -10.8307 -7.9563 -30.1332 2.3290 9.5201 27.4361 -0.0535 -11.1586 -6.9967 0.1409 -2.4192 -6.6656 0.0000 0.0000 0.0000 28.8794 -6.2861 9.1126 -0.6340 -5.0945 14.1784 -0.6489 13.2881 -15.9907 -0.1528 -2.5188 6.9417 6.4965 0.5027 7.4386 4.5432 1.7356 3.7019 0.9232 1.1579 -0.3054 -9.4804 -7.1809 -11.2901 3.4202 -4.6727 39.2100 2.8298 -1.3982 16.3765 -0.0000 -0.0000 0.0000 -89.6029 6.7626 17.0124 16.2259 -25.8259 -3.7438 -0.0000 0.0000 -1.3083 17.0402 21.5290 6.4174 -7.1250 0.0000 -0.0000 -11.9403 52.0119 -2.0859 -0.0000 -0.0000 0.0000 83.0630 3.7615 14.9515 -17.0528 26.9274 -4.1112 0.0000 -0.0000 -10.1817 -19.8199 9.7338 -3.4870 7.1250 -0.0000 -0.0000 5.1013 -19.6669 3.0991
-1.9768 17.4078 16.6656 6.5736 -183.8740 -357.1650 0.0000 0.0000 0.0000 -10.7077 -8.0955 -29.9966 2.3774 9.6115 27.7277 -0.0735 -10.7843 -6.3638 0.1769 -2.7092 -7.4702 0.0000 0.0000 0.0000 29.0002 -6.4056 9.4332 -0.6155 -5.0212 13.9691 -0.6429 13.0757 -15.8617 -0.0705 -1.7125 4.7118 6.6657 0.5386 7.3677 4.4904 1.7828 3.6442 0.7719 1.1793 -0.3172 -9.5539 -7.2014 -11.1395 3.6394 -4.8079 39.0682 2.9118 -1.4407 16.2863 0.0000 -0.0000 0.0000 -89.5076 6.8187 16.9130 16.2087 -25.8028 -3.7363 -0.0000 0.0000 -1.3396 17.3194 21.0376 6.3873 -7.1250 0.0000 -0.0000 -11.4756 51.5659 -1.8764 0.0000 -0.0000 0.0000 83.3814 3.6900 14.5686 -16.8957 26.7201 -4.0403 0.0000 -0.0000 -9.7136 -19.9568 9.9597 -3.5936 7.1250 -0.0000 -0.0000 5.0063 -19.4191 3.0687
-1.9872 17.4065 16.5711 6.6035 -183.7820 -357.0700 0.0000 0.0000 0.0000 -10.7322 -8.2908 -29.9166 2.4201 9.6911 27.9821 -0.0756 -10.2226 -5.8542 0.2147 -2.9828 -8.2308 0.0000 0.0000 0.0000 28.9830 -6.4708 9.7905 -0.5941 -4.9345 13.7218 -0.6405 12.7991 -15.7429 -0.0422 -1.3255 3.6450 6.7826 0.5564 7.3318 4.3805 1.7982 3.5733 0.5918 1.1803 -0.3626 -9.6393 -7.1932 -11.1956 3.8465 -4.8130 39.1863 3.0255 -1.4192 16.3753 0.0000 -0.0000 0.0000 -89.4360 6.7778 16.9866 16.1951 -25.7845 -3.7304 -0.0000 0.0000 -1.6589 17.5914 20.9792 6.4762 -7.1250 0.0000 -0.0000 -11.1869 51.5530 -1.8246 0.0000 -0.0000 0.0000 83.6901 3.4898 14.5025 -16.8576 26.6697 -4.0232 0.0000 -0.0000 -9.8260 -20.4903 9.8523 -3.6586 7.1250 -0.0000 -0.0000 4.6250 -19.4943 2.8256
-1.9976 17.4000 16.4715 6.5459 -183.8610 -357.0790 0.0000 0.0000 0.0000 -10.8666 -8.3106 -29.7596 2.4432 9.7339 28.1193 -0.0870 -9.8181 -5.2820 0.1203 -2.2358 -6.1579 0.0000 0.0000 0.0000 28.8515 -6.2984 10.3070 -0.5839 -4.8927 13.6027 -0.6258 12.5887 -15.5375 -0.0383 -1.2628 3.4721 6.5794 0.5634 7.3740 4.4319 1.7997 3.5477 0.7557 1.1761 -0.4207 -9.7258 -7.1190 -11.3544 3.6654 -4.5507 39.3503 3.0130 -1.3397 16.4785 -0.0000 -0.0000 0.0000 -89.7249 6.7897 16.9248 16.2193 -25.8170 -3.7409 -0.0000 0.0000 -2.0802 17.8067 20.9252 6.5440 -7.1250 0.0000 -0.0000 -10.9556 51.5349 -1.7812 -0.0000 -0.0000 0.0000 83.6177 3.1673 14.8660 -16.8996 26.7252 -4.0421 0.0000 -0.0000 -10.2031 -20.7852 10.0216 -3.7790 7.1250 -0.0000 -0.0000 4.4181 -19.2932 2.7183
-2.0043 17.4089 16.3751 6.3845 -183.8930 -357.0600 0.0000 0.0000 0.0000 -11.0589 -8.3813 -29.5473 2.4508 9.7479 28.1640 -0.1045 -9.6472 -4.7614 0.0387 -1.2705 -3.4933 0.0000 0.0000 0.0000 28.6483 -6.0975 10.6913 -0.5876 -4.9078 13.6457 -0.6011 12.3661 -15.2357 -0.0222 -0.9614 2.6427 6.1706 0.5680 7.4189 4.4960 1.7821 3.5580 1.0488 1.1617 -0.4504 -9.8202 -7.0410 -11.4277 3.5500 -4.3818 39.2730 3.0010 -1.3076 16.4411 -0.0000 -0.0000 0.0000 -90.0220 6.7459 16.7568 16.2234 -25.8226 -3.7427 -0.0000 0.0000 -2.4603 17.7759 20.7579 6.4826 -7.1250 0.0000 -0.0000 -10.9240 51.3609 -1.7290 -0.0000 -0.0000 0.0000 83.5141 3.0934 14.8645 -16.7936 26.5849 -3.9945 0.0000 -0.0000 -10.0500 -20.5504 10.3405 -3.8497 7.1250 -0.0000 -0.0000 4.5908 -18.9727 2.8580
-2.0010 17.4258 16.2786 6.0965 -183.8950 -356.9080 0.0000 0.0000 0.0000 -11.3565 -8.4063 -29.4517 2.4489 9.7444 28.1528 -0.1048 -9.5439 -4.6545 0.0507 -1.4535 -3.9976 0.0000 0.0000 0.0000 28.4004 -5.7933 10.8649 -0.6046 -4.9774 13.8440 -0.5880 11.9284 -14.9646 -0.0049 -0.4539 1.2472 5.6531 0.6694 7.3213 4.4125 1.8481 3.4846 1.2452 1.1759 -0.4836 -10.0409 -7.0302 -11.1586 3.9209 -4.5004 39.0669 3.1774 -1.3447 16.2974 0.0000 0.0000 0.0000 -90.0215 6.6244 16.6028 16.0741 -25.6210 -3.6780 -0.0000 0.0000 -2.4193 17.5943 20.5212 6.3432 -7.1250 0.0000 -0.0000 -11.0147 51.0910 -1.6701 0.0000 0.0000 0.0000 83.7232 3.1220 14.3683 -16.5343 26.2398 -3.8792 0.0000 -0.0000 -9.5944 -20.4690 10.0569 -3.7294 7.1250 -0.0000 -0.0000 4.6435 -19.2793 2.8593
-2.0163 17.4329 16.1797 5.7739 -183.7010 -356.7840 0.0000 0.0000 0.0000 -11.7722 -8.7166 -29.2420 2.4355 9.7196 28.0735 -0.0952 -9.2556 -4.5882 0.0834 -1.8632 -5.1277 0.0000 0.0000 0.0000 27.9970 -5.7679 10.8216 -0.6390 -5.1142 14.2345 -0.5597 11.7753 -14.6444 -0.0030 -0.3558 0.9777 5.3299 0.6991 7.2994 4.2993 1.8399 3.2917 1.3049 1.1490 -0.6770 -10.2661 -7.0749 -10.8430 4.1762 -4.5862 39.0754 3.3234 -1.3656 16.2541 0.0000 0.0000 0.0000 -90.0800 6.7061 16.5676 15.9693 -25.4790 -3.6328 -0.0000 0.0000 -2.4741 18.1096 20.1493 6.4275 -7.1250 0.0000 -0.0000 -10.3799 50.7991 -1.4971 0.0000 0.0000 0.0000 83.9285 2.8336 13.9447 -16.3164 25.9477 -3.7833 0.0000 -0.0000 -9.5044 -20.4730 10.4289 -3.8663 7.1250 -0.0000 -0.0000 4.6473 -18.8849 2.9025
-2.0237 17.4431 16.0745 5.8261 -183.5570 -356.6920 0.0000 0.0000 0.0000 -11.8082 -8.6295 -29.0385 2.4172 9.6857 27.9649 -0.1252 -9.2606 -3.8969 0.0780 -1.8015 -4.9573 0.0000 0.0000 0.0000 28.0446 -5.5959 10.7687 -0.6946 -5.3276 14.8453 -0.5338 11.7703 -14.3937 -0.0075 -0.5585 1.5347 5.3906 0.7780 7.2092 4.2093 1.9298 3.2257 1.1722 1.1880 -0.6885 -10.0995 -7.1229 -10.8605 4.1802 -4.6874 39.1168 3.2821 -1.3756 16.2812 -0.0000 -0.0000 0.0000 -89.9404 6.5686 16.7198 15.8909 -25.3724 -3.5991 -0.0000 0.0000 -2.6014 18.5578 19.9695 6.5406 -7.1250 0.0000 -0.0000 -9.8815 50.6895 -1.3972 -0.0000 -0.0000 0.0000 84.3152 2.5733 13.2454 -16.1424 25.7134 -3.7075 0.0000 -0.0000 -9.0252 -20.1920 11.0621 -4.0364 7.1250 -0.0000 -0.0000 4.8583 -18.2375 3.1050
-2.0319 17.4524 15.9606 5.7036 -183.4160 -356.8290 0.0000 0.0000 0.0000 -12.0701 -8.5218 -28.5636 2.4097 9.6718 27.9203 -0.1590 -9.3861 -3.1794 0.0642 -1.6346 -4.4969 0.0000 0.0000 0.0000 27.8954 -5.5126 10.9273 -0.7586 -5.5623 15.5197 -0.5092 11.7098 -14.1318 -0.0048 -0.4456 1.2245 5.3843 0.8690 7.1967 3.9955 2.0295 3.3655 0.9505 1.2400 -0.5271 -10.9148 -1.3328 -11.0282 6.8312 -7.5592 38.1882 3.1916 -5.5502 16.0710 0.0000 -0.0000 0.0000 -89.6846 6.1766 16.6801 15.7901 -25.2352 -3.5560 -0.0000 0.0000 -2.2969 18.4517 20.2884 6.5995 -7.1250 0.0000 -0.0000 -10.0950 50.9974 -1.5047 0.0000 -0.0000 0.0000 84.8216 2.5615 12.4586 -15.9892 25.5060 -3.6413 0.0000 -0.0000 -8.5102 -20.2299 10.9352 -3.9989 7.1250 -0.0000 -0.0000 4.8291 -18.3686 3.0722
-2.0390 17.4588 15.8538 5.4063 -183.2410 -356.9420 0.0000 0.0000 0.0000 -12.5005 -8.4971 -28.1252 2.4151 9.6818 27.9524 -0.1868 -9.5275 -2.5931 0.0442 -1.3563 -3.7298 0.0000 0.0000 0.0000 27.6008 -5.4419 11.0590 -0.8216 -5.7835 16.1574 -0.5020 11.3252 -13.9243 -0.0010 0.2077 -0.5706 4.9800 0.8973 7.3723 3.9123 2.0413 3.3450 1.0830 1.2345 -0.6561 -10.8861 -1.3950 -11.1411 6.7545 -7.6381 38.2839 3.1372 -5.5879 16.1548 0.0000 0.0000 0.0000 -89.7828 6.2389 16.4432 15.8820 -25.3604 -3.5953 -0.0000 0.0000 -2.0513 18.0555 20.7953 6.6019 -7.1250 0.0000 -0.0000 -10.6638 51.4457 -1.7093 0.0000 0.0000 0.0000 84.9850 2.3118 12.1384 -15.8938 25.3764 -3.6003 0.0000 -0.0000 -8.5904 -20.4241 10.9176 -4.0342 7.1250 -0.0000 -0.0000 4.6918 -18.3717 2.9840
-2.0461 17.4553 15.7524 5.2629 -182.9470 -356.9920 0.0000 0.0000 0.0000 -12.7693 -8.4119 -27.8000 2.4239 9.6982 28.0047 -0.2282 -9.8280 -1.7862 0.0032 -0.3662 -1.0063 0.0000 0.0000 0.0000 27.4573 -5.4746 11.0283 -0.8996 -6.0449 16.9149 -0.4914 11.0408 -13.7187 -0.0139 0.7603 -2.0895 4.7146 0.8347 7.5364 3.9082 1.9468 3.1959 1.2265 1.1738 -0.9112 -11.0127 -1.3592 -10.8821 6.7852 -7.6623 38.3239 3.1710 -5.6390 16.1223 -0.0000 -0.0000 0.0000 -89.9538 6.4847 16.1767 15.9407 -25.4402 -3.6204 -0.0000 0.0000 -1.9330 17.6028 20.4169 6.3158 -7.1250 0.0000 -0.0000 -10.9687 50.9873 -1.6348 -0.0000 -0.0000 0.0000 85.0426 1.8044 12.1720 -15.8871 25.3673 -3.5974 0.0000 -0.0000 -8.7821 -20.4239 10.9467 -4.0448 7.1250 -0.0000 -0.0000 4.6926 -18.3409 2.9876
-2.0599 17.4555 15.6431 5.0499 -182.7350 -356.9690 0.0000 0.0000 0.0000 -13.1156 -8.4449 -27.4679 2.4352 9.7191 28.0719 -0.2515 -10.0000 -1.3074 0.0078 0.5694 1.5646 0.0000 0.0000 0.0000 27.1494 -5.4474 10.8629 -0.9967 -6.3533 17.8132 -0.4452 11.0859 -13.2581 -0.0134 0.7478 -2.0550 4.5778 0.7993 7.3598 3.7608 1.8566 3.2102 1.1621 1.1233 -0.7987 -10.9494 -1.3614 -10.7593 6.8004 -7.6566 38.1920 3.1704 -5.6175 16.0204 -0.0000 -0.0000 0.0000 -89.9512 6.3680 15.9321 15.8841 -25.3632 -3.5962 -0.0000 0.0000 -1.7355 17.2111 20.3157 6.1384 -7.1250 0.0000 -0.0000 -11.3127 50.8205 -1.6404 -0.0000 -0.0000 0.0000 85.3076 1.6175 12.1277 -15.8723 25.3472 -3.5911 0.0000 -0.0000 -8.6636 -20.5213 10.2552 -3.8125 7.1250 -0.0000 -0.0000 4.6098 -19.0653 2.8604
-2.0750 17.4759 15.5314 5.0808 -182.6730 -356.8780 0.0000 0.0000 0.0000 -13.1566 -8.5530 -27.1451 2.4473 9.7415 28.1437 -0.2470 -10.0046 -1.4717 0.0037 0.3906 1.0732 0.0000 0.0000 0.0000 27.0975 -5.2958 10.5635 -1.1075 -6.6865 18.7898 -0.3758 11.0620 -12.5106 -0.0194 0.8982 -2.4688 4.6717 0.8239 7.1518 3.6643 1.8686 3.2154 1.0145 1.1283 -0.6713 -10.7289 -1.3757 -10.8281 6.6786 -7.6430 38.1700 3.0800 -5.5832 16.0072 0.0000 0.0000 0.0000 -89.9238 6.2694 15.8253 15.8903 -25.3717 -3.5988 -0.0000 0.0000 -1.7285 16.8027 21.1699 6.2236 -7.1250 0.0000 -0.0000 -12.0321 51.6114 -1.9831 0.0000 0.0000 0.0000 85.6101 1.5257 11.8744 -15.7405 25.1676 -3.5349 0.0000 -0.0000 -8.2919 -20.5077 9.7343 -3.6187 7.1250 -0.0000 -0.0000 4.6107 -19.6181 2.8041
-2.0854 17.4916 15.4198 5.1308 -182.5710 -356.8800 0.0000 0.0000 0.0000 -13.2019 -8.5065 -26.7695 2.4533 9.7525 28.1789 -0.2512 -10.2529 -1.7818 0.0000 0.0371 0.1020 0.0000 0.0000 0.0000 27.0406 -5.3504 10.2185 -1.2409 -7.0635 19.9037 -0.2951 11.0819 -11.6161 -0.0397 1.2858 -3.5356 4.7080 0.8784 7.1340 3.5961 1.9350 3.1793 0.9187 1.1580 -0.6940 -10.6702 -1.3898 -10.9193 6.7659 -7.7347 38.2786 3.0905 -5.6063 16.1000 0.0000 -0.0000 0.0000 -89.8259 6.2977 16.0242 15.9619 -25.4690 -3.6296 -0.0000 0.0000 -1.9282 16.6222 20.8583 6.0675 -7.1250 0.0000 -0.0000 -12.0880 51.2690 -1.8900 0.0000 -0.0000 0.0000 85.8365 1.3217 11.4537 -15.5624 24.9237 -3.4595 0.0000 -0.0000 -8.3146 -20.1947 10.1087 -3.6938 7.1250 -0.0000 -0.0000 4.8392 -19.2444 2.9844
-2.0936 17.5020 15.3066 5.0543 -182.4630 -357.0020 0.0000 0.0000 0.0000 -13.4588 -8.1592 -26.3148 2.4441 9.7356 28.1246 -0.2788 -10.8372 -1.9463 0.0000 -0.0169 -0.0466 0.0000 0.0000 0.0000 26.8402 -5.4581 9.9023 -1.4081 -7.5057 21.2223 -0.2270 11.1021 -10.8248 -0.0677 1.6792 -4.6200 4.5706 0.9056 7.2390 3.5288 1.9643 3.2120 0.9214 1.1706 -0.7200 -10.9641 -1.4048 -11.0531 7.1805 -7.8826 38.4099 3.2986 -5.6681 16.2597 -0.0000 0.0000 0.0000 -89.7510 6.2954 16.2523 16.0317 -25.5636 -3.6596 -0.0000 0.0000 -2.1473 16.7851 19.7258 5.8131 -7.1250 0.0000 -0.0000 -11.5131 50.1584 -1.4811 -0.0000 0.0000 0.0000 85.9492 1.0936 11.2642 -15.4521 24.7722 -3.4131 0.0000 -0.0000 -8.5386 -20.2051 10.4982 -3.8363 7.1250 -0.0000 -0.0000 4.8383 -18.8322 3.0283
